<svg width="496" height="200" viewBox="0 0 496 200" fill="none" xmlns="http://www.w3.org/2000/svg">
<path d="M0 147.834V123.508L62.5554 26H101.193V123.099H120V147.834H101.193V174H71.9591V147.834H0ZM31.0733 123.099H72.368V59.7293H70.937L31.0733 121.873V123.099Z" fill="#D4D2FF"/>
<g clip-path="url(#clip0_1331_4335)">
<circle cx="248" cy="100" r="100" fill="#F2F2FF"/>
<mask id="mask0_1331_4335" style="mask-type:alpha" maskUnits="userSpaceOnUse" x="148" y="0" width="201" height="200">
<circle cx="248" cy="100" r="100" fill="#F2F2FF"/>
</mask>
<g mask="url(#mask0_1331_4335)">
<path d="M339.733 72.7487H277.467C268.853 72.7487 260.634 69.2251 254.77 63.0304L242.105 49.6439C227.735 34.4461 201.846 44.4384 201.846 65.1841V333.021C201.846 349.832 215.72 363.462 232.832 363.462H339.733C415.455 363.462 476.846 303.15 476.846 228.76V207.451C476.846 133.06 415.455 72.7487 339.733 72.7487ZM377.335 221.735C377.335 241.91 360.688 258.265 340.152 258.265H338.541C318.005 258.265 301.357 241.91 301.357 221.735V214.475C301.357 194.3 318.005 177.946 338.541 177.946H340.152C360.688 177.946 377.335 194.3 377.335 214.475V221.735Z" fill="#D4D2FF"/>
<path d="M269.314 144.273C269.314 144.273 260.628 136.629 253.255 143.953" stroke="#323234" stroke-width="3.84615" stroke-linecap="round"/>
<circle cx="4.80769" cy="4.80769" r="4.80769" transform="matrix(1 0 0 -1 255.692 134.615)" fill="#9080FF"/>
<circle cx="5.76923" cy="5.76923" r="5.76923" transform="matrix(1 0 0 -1 236.462 115.385)" fill="#323234"/>
<circle cx="5.76923" cy="5.76923" r="5.76923" transform="matrix(1 0 0 -1 273 115.385)" fill="#323234"/>
</g>
<path d="M301.33 131.885C298.738 123.779 286.043 118.351 286.043 118.351C286.043 118.351 287.19 122.64 287.971 125.374C289.322 130.106 289.885 134.641 291.42 137.309C292.711 139.555 294.859 141.805 298.138 140.772C300.973 139.879 302.986 137.066 301.33 131.885Z" fill="white"/>
</g>
<path d="M376 147.834V123.508L438.555 26H477.193V123.099H496V147.834H477.193V174H447.959V147.834H376ZM407.073 123.099H448.368V59.7293H446.937L407.073 121.873V123.099Z" fill="#D4D2FF"/>
<defs>
<clipPath id="clip0_1331_4335">
<rect width="200" height="200" fill="white" transform="translate(148)"/>
</clipPath>
</defs>
</svg>
