<svg width="56" height="56" viewBox="0 0 56 56" fill="none" xmlns="http://www.w3.org/2000/svg">
<circle cx="28" cy="28" r="28" fill="#6738FF"/>
<path fill-rule="evenodd" clip-rule="evenodd" d="M27.9998 20.4166C28.5981 20.4166 29.0832 20.9017 29.0832 21.5L29.0832 26.9166H34.4998C35.0981 26.9166 35.5832 27.4017 35.5832 28C35.5832 28.5983 35.0981 29.0833 34.4998 29.0833H29.0832V34.5C29.0832 35.0983 28.5981 35.5833 27.9998 35.5833C27.4015 35.5833 26.9165 35.0983 26.9165 34.5L26.9165 29.0833H21.4998C20.9015 29.0833 20.4165 28.5983 20.4165 28C20.4165 27.4017 20.9015 26.9166 21.4998 26.9166H26.9165L26.9165 21.5C26.9165 20.9017 27.4015 20.4166 27.9998 20.4166Z" fill="white"/>
</svg>
