<svg width="20" height="20" viewBox="0 0 20 20" fill="none" xmlns="http://www.w3.org/2000/svg">
<path d="M10 20C15.5228 20 20 15.5228 20 10C20 4.47715 15.5228 0 10 0C4.47715 0 0 4.47715 0 10C0 15.5228 4.47715 20 10 20Z" fill="#1E9EFF"/>
<path d="M11.8699 11.35C11.8699 11.35 14.4799 10.72 14.4799 7.46998C14.4799 4.21998 11.6999 3.34998 10.5699 3.41998C9.43993 3.47998 5.42993 3.74998 5.42993 3.74998V14.98L8.02993 15.43V11.5H9.05993L11.2499 15.99L14.5599 16.57L11.8599 11.34L11.8699 11.35ZM9.79993 9.12998H8.03993V6.00998C8.03993 6.00998 9.36993 5.93998 9.89993 5.93998C10.4799 5.93998 11.4199 6.25998 11.4199 7.48998C11.4199 8.71998 10.4399 9.12998 9.80993 9.12998H9.79993Z" fill="white"/>
</svg>
