<svg width="20" height="20" viewBox="0 0 20 20" fill="none" xmlns="http://www.w3.org/2000/svg">
<path d="M10 20C15.5228 20 20 15.5228 20 10C20 4.47715 15.5228 0 10 0C4.47715 0 0 4.47715 0 10C0 15.5228 4.47715 20 10 20Z" fill="#00E54F"/>
<path d="M13.69 3.75H6.32001C4.90001 3.75 3.76001 4.9 3.76001 6.31V10.19C3.76001 10.55 4.04001 10.85 4.39001 10.87L7.80001 11.12L12.01 11.43C12.18 11.44 12.31 11.58 12.31 11.74L12.33 12.38V12.86C12.35 13.05 12.19 13.21 12 13.19L8.15001 12.91C7.98001 12.9 7.85001 12.76 7.85001 12.6V12.24C7.84001 12.13 7.75001 12.05 7.65001 12.04L3.98001 11.77C3.86001 11.77 3.76001 11.86 3.76001 11.97V13.68C3.76001 15.1 4.91001 16.24 6.32001 16.24H13.69C15.11 16.24 16.25 15.09 16.25 13.68V9.71C16.25 9.35 15.97 9.05 15.62 9.03L12.22 8.78L8.01001 8.47C7.84001 8.46 7.71001 8.32 7.71001 8.16L7.69001 7.62V7.14C7.67001 6.95 7.83001 6.79 8.02001 6.81L11.87 7.09C12.04 7.1 12.17 7.24 12.17 7.4V7.76C12.18 7.87 12.27 7.95 12.37 7.96L16.02 8.23C16.14 8.23 16.24 8.14 16.24 8.03V6.32C16.24 4.9 15.09 3.76 13.68 3.76L13.69 3.75Z" fill="black"/>
</svg>
