<svg width="80" height="20" viewBox="0 0 80 20" fill="none" xmlns="http://www.w3.org/2000/svg">
<g id="logo" clip-path="url(#clip0_111_193)">
<path id="Union" fill-rule="evenodd" clip-rule="evenodd" d="M4.62654 1.8957H8.43602C13.0687 1.8957 16.8246 5.65162 16.8246 10.2843V11.6113C16.8246 16.244 13.0687 20 8.43602 20H1.89573C0.848815 20 0 19.1512 0 18.1042V1.42461C0 0.132666 1.58389 -0.489608 2.46303 0.456837L3.23791 1.29049C3.59668 1.67627 4.09953 1.8957 4.62654 1.8957ZM8.46161 13.4488C9.71801 13.4488 10.7365 12.4303 10.7365 11.1739V10.7218C10.7365 9.46537 9.71801 8.44689 8.46161 8.44689H8.36303C7.10664 8.44689 6.08815 9.46537 6.08815 10.7218V11.1739C6.08815 12.4303 7.10664 13.4488 8.36303 13.4488H8.46161ZM27.1564 1.89575H26.4455C21.9957 1.89575 18.3886 5.50286 18.3886 9.95262V11.9431C18.3886 16.3929 21.9957 20 26.4455 20H27.1564C31.6061 20 35.2133 16.3929 35.2133 11.9431V9.95262C35.2133 5.50286 31.6061 1.89575 27.1564 1.89575ZM29.1251 11.174C29.1251 12.4303 28.1066 13.4488 26.8502 13.4488H26.7516C25.4952 13.4488 24.4768 12.4303 24.4768 11.174V10.7218C24.4768 9.46542 25.4952 8.44694 26.7516 8.44694H26.8502C28.1066 8.44694 29.1251 9.46542 29.1251 10.7218V11.174ZM47.5957 20H52.6412V20.0005C53.6952 20.0005 54.3825 18.8943 53.9161 17.9493L50.7701 11.5777C50.5744 11.1811 50.5744 10.7157 50.7701 10.319L53.9161 3.94741C54.3825 3.00239 53.6952 1.89623 52.6412 1.89623H47.5957C46.8739 1.89623 46.2152 2.3057 45.8957 2.95262L44.672 5.77632C44.5697 6.01234 44.2175 5.93935 44.2175 5.68201V3.79149C44.2175 2.74457 43.3687 1.89575 42.3218 1.89575H38.7199C37.673 1.89575 36.8242 2.74457 36.8242 3.79149V18.1048C36.8242 19.1517 37.673 20.0005 38.7199 20.0005H42.3218C43.3687 20.0005 44.2175 19.1517 44.2175 18.1048V16.2142C44.2175 15.9569 44.5697 15.8839 44.672 16.1199L45.8957 18.9436C46.2152 19.5905 46.8744 20 47.5957 20ZM70.8536 7.58296V3.79149C70.8536 2.74457 70.0047 1.89575 68.9578 1.89575H59.337C57.1123 1.89575 55.3085 3.69954 55.3085 5.92419C55.3085 6.84788 55.6199 7.69812 56.1427 8.37727H56.1412L58.6199 12.0474C58.7261 12.2048 58.6133 12.4171 58.4237 12.4171H57.2047C56.1578 12.4171 55.309 13.2659 55.309 14.3128V18.1043C55.309 19.1512 56.1578 20 57.2047 20H66.8256C69.0502 20 70.854 18.1962 70.854 15.9716C70.854 15.0341 70.5332 14.1725 69.9962 13.4882L69.9981 13.4891L67.5422 9.84836C67.436 9.69101 67.5488 9.47869 67.7389 9.47869H68.9583C70.0052 9.47869 70.854 8.62988 70.854 7.58296H70.8536ZM78.1043 1.89575H74.5024C73.4554 1.89575 72.6066 2.7445 72.6066 3.79149V18.1043C72.6066 19.1513 73.4554 20 74.5024 20H78.1043C79.1512 20 80 19.1513 80 18.1043V3.79149C80 2.7445 79.1512 1.89575 78.1043 1.89575Z" fill="#6738FF"/>
</g>
<defs>
<clipPath id="clip0_111_193">
<rect width="80" height="20" fill="white"/>
</clipPath>
</defs>
</svg>
