<svg width="17" height="20" viewBox="0 0 17 20" fill="none" xmlns="http://www.w3.org/2000/svg">
<path d="M8.52394 1.8957H4.67476C4.14225 1.8957 3.63417 1.67627 3.27166 1.29049L2.4887 0.456838C1.60039 -0.489609 0 0.132667 0 1.42461V18.1043C0 19.1512 0.857662 20 1.91549 20H8.52394C13.2049 20 17 16.2441 17 11.6114V10.2843C17 5.65163 13.2049 1.8957 8.52394 1.8957ZM10.8484 11.1739C10.8484 12.4303 9.8193 13.4488 8.5498 13.4488H8.4502C7.1807 13.4488 6.15161 12.4303 6.15161 11.1739V10.7218C6.15161 9.46538 7.1807 8.4469 8.4502 8.4469H8.5498C9.8193 8.4469 10.8484 9.46538 10.8484 10.7218V11.1739Z" fill="#6738FF"/>
</svg>
