<svg width="current" height="current" viewBox="0 0 26 26" fill="none" xmlns="http://www.w3.org/2000/svg">
<g id="ic-alert">
<path id="Exclude" fill-rule="evenodd" clip-rule="evenodd" d="M16.4182 5.48376C14.8745 2.83874 11.0525 2.83875 9.50883 5.48376L3.05134 16.5482C1.49503 19.2148 3.41846 22.5644 6.50601 22.5644H19.421C22.5085 22.5644 24.432 19.2148 22.8757 16.5482L16.4182 5.48376ZM14 10C14 9.44772 13.5523 9 13 9C12.4477 9 12 9.44772 12 10V14.8594C12 15.4116 12.4477 15.8594 13 15.8594C13.5523 15.8594 14 15.4116 14 14.8594V10ZM14 18.4612C14 17.9089 13.5523 17.4612 13 17.4612C12.4477 17.4612 12 17.9089 12 18.4612V18.5039C12 19.0562 12.4477 19.5039 13 19.5039C13.5523 19.5039 14 19.0562 14 18.5039V18.4612Z" fill="current"/>
</g>
</svg>
