<svg width="current" height="current" viewBox="0 0 26 26" fill="none" xmlns="http://www.w3.org/2000/svg">
<g id="ic-calendar">
<path id="Icon (Stroke)" fill-rule="evenodd" clip-rule="evenodd" d="M7.54365 2C8.09594 2 8.54365 2.44772 8.54365 3V3.67142H17.5833V3C17.5833 2.44772 18.031 2 18.5833 2C19.1356 2 19.5833 2.44772 19.5833 3V3.79171C21.4631 4.25334 22.8333 5.98751 22.8333 8.01426L22.8333 19.1572C22.8333 21.5289 20.9569 23.5 18.5833 23.5H7.75C5.37643 23.5 3.5 21.5289 3.5 19.1572V8.01426C3.5 6.06244 4.77079 4.38196 6.54365 3.84808V3C6.54365 2.44772 6.99137 2 7.54365 2ZM7.75 5.67142C6.53372 5.67142 5.5 6.69361 5.5 8.01426V8.41053C5.52748 8.40827 5.55527 8.40711 5.58333 8.40711H20.75C20.7781 8.40711 20.8059 8.40827 20.8333 8.41053V8.01426C20.8333 6.69361 19.7996 5.67142 18.5833 5.67142H7.75ZM20.8333 10.4037C20.8059 10.406 20.7781 10.4071 20.75 10.4071H5.58333C5.55527 10.4071 5.52748 10.406 5.5 10.4037V19.1572C5.5 20.4778 6.53372 21.5 7.75 21.5H18.5833C19.7996 21.5 20.8333 20.4778 20.8333 19.1572L20.8333 10.4037ZM14.0845 11.8234C14.4616 11.9766 14.7083 12.343 14.7083 12.75V17.3214H15.3333C15.8856 17.3214 16.3333 17.7691 16.3333 18.3214C16.3333 18.8737 15.8856 19.3214 15.3333 19.3214H12.0833C11.531 19.3214 11.0833 18.8737 11.0833 18.3214C11.0833 17.7691 11.531 17.3214 12.0833 17.3214H12.7083V15.2022C12.3204 15.5136 11.7521 15.4941 11.3863 15.1384C10.9903 14.7534 10.9814 14.1203 11.3663 13.7243L12.9913 12.0529C13.2751 11.7611 13.7074 11.6703 14.0845 11.8234Z" fill="current"/>
</g>
</svg>
