<svg width="current" height="current" viewBox="0 0 26 26" fill="none" xmlns="http://www.w3.org/2000/svg">
<g id="ic-dropdown">
<path id="Icon" d="M13 22.75C18.3848 22.75 22.75 18.3848 22.75 13C22.75 7.61522 18.3848 3.25 13 3.25C7.61522 3.25 3.25 7.61522 3.25 13C3.25 18.3848 7.61522 22.75 13 22.75Z" fill="current"/>
<path id="Icon (Stroke)" fill-rule="evenodd" clip-rule="evenodd" d="M8.13897 11.1404C8.49253 10.7161 9.1231 10.6588 9.54738 11.0123L13.2162 14.0696L16.8849 11.0123C17.3092 10.6588 17.9398 10.7161 18.2933 11.1404C18.6469 11.5646 18.5896 12.1952 18.1653 12.5488L13.8563 16.1396C13.4855 16.4486 12.9468 16.4486 12.576 16.1396L8.26701 12.5488C7.84273 12.1952 7.78541 11.5646 8.13897 11.1404Z" fill="white"/>
</g>
</svg>
