<svg width="current" height="current" viewBox="0 0 26 26" fill="none" xmlns="http://www.w3.org/2000/svg">
<g id="ic-home">
<path id="Icon (Stroke)" fill-rule="evenodd" clip-rule="evenodd" d="M13.1932 4.30713C13.0805 4.23096 12.9195 4.23096 12.8068 4.30713L4.35681 10.0216C4.27754 10.0752 4.25 10.146 4.25 10.2007V20.8956C4.25 21.3207 4.62739 21.75 5.2 21.75H8.75V15.3322C8.75 14.0504 9.82769 13.0959 11.05 13.0959H14.95C16.1723 13.0959 17.25 14.0504 17.25 15.3322V21.75H20.8C21.3726 21.75 21.75 21.3207 21.75 20.8956V10.2007C21.75 10.146 21.7225 10.0752 21.6432 10.0216L13.1932 4.30713ZM20.8 23.75C22.3813 23.75 23.75 22.5188 23.75 20.8956V10.2007C23.75 9.45505 23.3702 8.77506 22.7636 8.36484L14.3136 2.65041C13.5241 2.11653 12.4759 2.11653 11.6864 2.65041L3.23643 8.36484C2.62982 8.77506 2.25 9.45505 2.25 10.2007V20.8956C2.25 22.5188 3.6187 23.75 5.2 23.75H20.8ZM15.25 21.75V15.3322C15.25 15.2485 15.1636 15.0959 14.95 15.0959H11.05C10.8364 15.0959 10.75 15.2485 10.75 15.3322V21.75H15.25Z" fill="current"/>
</g>
</svg>
