<svg width="current" height="current" viewBox="0 0 26 26" fill="none" xmlns="http://www.w3.org/2000/svg">
<g id="ic-lightning">
<path id="Icon (Stroke)" fill-rule="evenodd" clip-rule="evenodd" d="M16.1127 1.69073C16.505 1.87041 16.7378 2.28147 16.6902 2.71032L15.9923 8.99086L20.8146 11.7465C21.0796 11.8979 21.2609 12.162 21.307 12.4637C21.3531 12.7653 21.259 13.0715 21.0513 13.2952L11.0365 24.0803C10.7443 24.3951 10.2837 24.488 9.89226 24.3113C9.50082 24.1346 9.26592 23.7277 9.30866 23.3004L10.0061 16.3264L5.28755 14.3042C4.98857 14.1761 4.7706 13.9105 4.70318 13.5923C4.63577 13.2741 4.72734 12.943 4.94868 12.7046L14.9635 1.91944C15.2571 1.60324 15.7204 1.51104 16.1127 1.69073ZM7.3803 13.0252L11.468 14.777C11.8692 14.949 12.1125 15.3613 12.0691 15.7957L11.5947 20.54L18.7282 12.8577L14.4298 10.4015C14.0836 10.2036 13.888 9.81908 13.932 9.42279L14.3679 5.50009L7.3803 13.0252Z" fill="current"/>
</g>
</svg>
