<svg width="current" height="current" viewBox="0 0 26 26" fill="none" xmlns="http://www.w3.org/2000/svg">
<g id="ic-menu">
<path id="Icon (Stroke)" fill-rule="evenodd" clip-rule="evenodd" d="M3.33331 6.5C3.33331 5.94772 3.78103 5.5 4.33331 5.5H21.6666C22.2189 5.5 22.6666 5.94772 22.6666 6.5C22.6666 7.05228 22.2189 7.5 21.6666 7.5H4.33331C3.78103 7.5 3.33331 7.05228 3.33331 6.5ZM3.33331 13C3.33331 12.4477 3.78103 12 4.33331 12H21.6666C22.2189 12 22.6666 12.4477 22.6666 13C22.6666 13.5523 22.2189 14 21.6666 14H4.33331C3.78103 14 3.33331 13.5523 3.33331 13ZM3.33331 19.5C3.33331 18.9477 3.78103 18.5 4.33331 18.5H21.6666C22.2189 18.5 22.6666 18.9477 22.6666 19.5C22.6666 20.0523 22.2189 20.5 21.6666 20.5H4.33331C3.78103 20.5 3.33331 20.0523 3.33331 19.5Z" fill="current"/>
</g>
</svg>
