<svg width="current" height="current" viewBox="0 0 26 26" fill="none" xmlns="http://www.w3.org/2000/svg">
<g id="ic-new">
<path id="Union" fill-rule="evenodd" clip-rule="evenodd" d="M5 7.34284C5 6.02219 6.03372 5 7.25 5H18.0833C19.2996 5 20.3333 6.02219 20.3333 7.34284L20.3333 18.4857C20.3333 19.8064 19.2996 20.8286 18.0833 20.8286H7.25C6.03372 20.8286 5 19.8064 5 18.4857V7.34284ZM7.25 3C4.87643 3 3 4.97109 3 7.34284V18.4857C3 20.8575 4.87643 22.8286 7.25 22.8286H18.0833C20.4569 22.8286 22.3333 20.8575 22.3333 18.4857L22.3333 7.34284C22.3333 4.97109 20.4569 3 18.0833 3H7.25ZM9.73003 8.31659C9.44951 8.01693 9.01436 7.91913 8.6326 8.06994C8.25083 8.22075 8 8.58953 8 9V16.83C8 17.3823 8.44772 17.83 9 17.83C9.55228 17.83 10 17.3823 10 16.83V11.5315L15.6 17.5134C15.8805 17.8131 16.3156 17.9109 16.6974 17.7601C17.0792 17.6093 17.33 17.2405 17.33 16.83V9C17.33 8.44772 16.8823 8 16.33 8C15.7777 8 15.33 8.44772 15.33 9V14.2985L9.73003 8.31659Z" fill="current"/>
</g>
</svg>
