<svg width="current" height="current" viewBox="0 0 26 26" fill="none" xmlns="http://www.w3.org/2000/svg">
<g id="ic-search">
<path id="Icon (Stroke)" fill-rule="evenodd" clip-rule="evenodd" d="M12.3934 4.8999C8.2549 4.8999 4.90002 8.25478 4.90002 12.3932C4.90002 16.5317 8.2549 19.8866 12.3934 19.8866C14.4339 19.8866 16.284 19.0709 17.6353 17.7479C17.637 17.7462 17.6387 17.7445 17.6405 17.7428C19.0267 16.383 19.8867 14.4885 19.8867 12.3932C19.8867 8.25478 16.5318 4.8999 12.3934 4.8999ZM19.7312 18.4169C21.0781 16.7781 21.8867 14.6801 21.8867 12.3932C21.8867 7.15021 17.6364 2.8999 12.3934 2.8999C7.15033 2.8999 2.90002 7.15021 2.90002 12.3932C2.90002 17.6363 7.15033 21.8866 12.3934 21.8866C14.6289 21.8866 16.684 21.1138 18.3061 19.8209L21.4047 22.8186C21.8017 23.2026 22.4347 23.1921 22.8187 22.7952C23.2027 22.3983 23.1923 21.7652 22.7953 21.3812L19.7312 18.4169Z" fill="current"/>
</g>
</svg>
