<svg width="current" height="current" viewBox="0 0 26 26" fill="none" xmlns="http://www.w3.org/2000/svg">
<g id="ic-book-2">
<path id="Icon (Stroke)" fill-rule="evenodd" clip-rule="evenodd" d="M21.2 18.0001H6.99999C5.78496 18.0001 4.79999 18.9851 4.79999 20.2001C4.79999 21.4151 5.78496 22.4001 6.99999 22.4001H20.6C20.9314 22.4001 21.2 22.1315 21.2 21.8001V18.0001ZM2.79999 20.2001V5.8001C2.79999 3.4805 4.68039 1.6001 6.99999 1.6001H20.6C22.0359 1.6001 23.2 2.76416 23.2 4.2001V21.8001C23.2 23.236 22.0359 24.4001 20.6 24.4001H6.99999C4.68039 24.4001 2.79999 22.5197 2.79999 20.2001ZM7.99994 7.4001C7.99994 6.84781 8.44765 6.4001 8.99994 6.4001H17.45C18.0023 6.4001 18.45 6.84781 18.45 7.4001C18.45 7.95238 18.0023 8.4001 17.45 8.4001H8.99994C8.44765 8.4001 7.99994 7.95238 7.99994 7.4001Z" fill="current"/>
</g>
</svg>
