<svg width="26" height="26" viewBox="0 0 26 26" fill="none" xmlns="http://www.w3.org/2000/svg">
<g id="ic-book-2">
<path id="Icon (Stroke)" fill-rule="evenodd" clip-rule="evenodd" d="M21.2 18.0001H7.00005C5.78502 18.0001 4.80005 18.9851 4.80005 20.2001C4.80005 21.4151 5.78502 22.4001 7.00005 22.4001H20.6C20.9314 22.4001 21.2 22.1315 21.2 21.8001V18.0001ZM2.80005 20.2001V5.8001C2.80005 3.4805 4.68045 1.6001 7.00005 1.6001H20.6C22.036 1.6001 23.2 2.76416 23.2 4.2001V21.8001C23.2 23.236 22.036 24.4001 20.6 24.4001H7.00005C4.68045 24.4001 2.80005 22.5197 2.80005 20.2001ZM8 7.4001C8 6.84781 8.44772 6.4001 9 6.4001H17.45C18.0023 6.4001 18.45 6.84781 18.45 7.4001C18.45 7.95238 18.0023 8.4001 17.45 8.4001H9C8.44772 8.4001 8 7.95238 8 7.4001Z" fill="#9A999F"/>
</g>
</svg>
