<svg width="current" height="current" viewBox="0 0 26 26" fill="none" xmlns="http://www.w3.org/2000/svg">
<g id="ic-book">
<path id="Icon (Stroke)" fill-rule="evenodd" clip-rule="evenodd" d="M1.59998 5.27426C1.59998 4.06555 2.57983 3.08569 3.78855 3.08569H8.3564C9.88253 3.08569 11.3462 3.69195 12.4253 4.77108L12.5365 4.88232C12.5906 4.87326 12.6462 4.86855 12.7028 4.86855C12.7595 4.86855 12.815 4.87326 12.8691 4.88232L12.9804 4.77108C14.0595 3.69195 15.5231 3.08569 17.0493 3.08569H22.2114C23.4201 3.08569 24.4 4.06555 24.4 5.27426V17.7543C24.4 18.963 23.4201 19.9428 22.2114 19.9428H17.6435C16.6478 19.9428 15.6929 20.3384 14.9889 21.0424L13.4099 22.6214C13.2224 22.8089 12.968 22.9143 12.7028 22.9143C12.4376 22.9143 12.1833 22.8089 11.9957 22.6214L10.4168 21.0424C9.71264 20.3383 8.75823 19.9428 7.76265 19.9428H3.78751C2.57766 19.9428 1.59998 18.9618 1.59998 17.7543V5.27426ZM11.7028 6.87705L11.0111 6.1853C10.307 5.48123 9.3521 5.08569 8.3564 5.08569H3.78855C3.6844 5.08569 3.59998 5.17012 3.59998 5.27426V17.7543C3.59998 17.8595 3.6845 17.9428 3.78751 17.9428H7.76265C9.22929 17.9428 10.6376 18.5027 11.7028 19.504V6.87705ZM13.7028 19.504V6.87705L14.3946 6.1853C15.0986 5.48123 16.0536 5.08569 17.0493 5.08569H22.2114C22.3155 5.08569 22.4 5.17012 22.4 5.27426V17.7543C22.4 17.8584 22.3155 17.9428 22.2114 17.9428H17.6435C16.177 17.9428 14.7682 18.5027 13.7028 19.504Z" fill="current"/>
</g>
</svg>
