<svg width="current" height="current" viewBox="0 0 26 26" fill="none" xmlns="http://www.w3.org/2000/svg">
<g id="ic-check-default">
<path id="Icon (Stroke)" fill-rule="evenodd" clip-rule="evenodd" d="M7.58331 5.33325C6.34067 5.33325 5.33331 6.34061 5.33331 7.58323V18.4166C5.33331 19.6592 6.34067 20.6666 7.58331 20.6666H18.4166C19.6593 20.6666 20.6666 19.6592 20.6666 18.4166L20.6666 7.58323C20.6666 6.34061 19.6593 5.33325 18.4166 5.33325H7.58331ZM3.33331 7.58323C3.33331 5.23603 5.23611 3.33325 7.58331 3.33325H18.4166C20.7638 3.33325 22.6666 5.23603 22.6666 7.58323L22.6666 18.4166C22.6666 20.7638 20.7638 22.6666 18.4166 22.6666H7.58331C5.23611 22.6666 3.33331 20.7638 3.33331 18.4166V7.58323Z" fill="current"/>
</g>
</svg>
