<svg width="current" height="current" viewBox="0 0 26 26" fill="none" xmlns="http://www.w3.org/2000/svg">
<g id="ic-close-2">
<path id="Exclude" fill-rule="evenodd" clip-rule="evenodd" d="M13 24C19.0751 24 24 19.0751 24 13C24 6.92487 19.0751 2 13 2C6.92487 2 2 6.92487 2 13C2 19.0751 6.92487 24 13 24ZM17.7337 17.7337C17.3787 18.0888 16.8031 18.0888 16.4481 17.7337L13 14.2856L9.55192 17.7337C9.19689 18.0888 8.62129 18.0888 8.26627 17.7337C7.91124 17.3787 7.91124 16.8031 8.26627 16.4481L11.7144 13L8.26627 9.55192C7.91124 9.19689 7.91124 8.62129 8.26627 8.26627C8.62129 7.91124 9.19689 7.91124 9.55192 8.26627L13 11.7144L16.4481 8.26627C16.8031 7.91125 17.3787 7.91125 17.7337 8.26627C18.0888 8.62129 18.0888 9.19689 17.7337 9.55192L14.2856 13L17.7337 16.4481C18.0888 16.8031 18.0888 17.3787 17.7337 17.7337Z" fill="current"/>
</g>
</svg>
