<svg width="current" height="current" viewBox="0 0 26 26" fill="none" xmlns="http://www.w3.org/2000/svg">
<g id="ic-content">
<path id="Icon (Stroke)" fill-rule="evenodd" clip-rule="evenodd" d="M5.86291 5.12061C4.3738 5.12061 3.16669 6.32772 3.16669 7.81671V20.1372C3.16669 21.6262 4.3738 22.8333 5.86291 22.8333H18.1836C19.6728 22.8333 20.8799 21.6262 20.8799 20.1372L20.8799 13.9769C20.8799 13.4247 21.3276 12.9769 21.8799 12.9769C22.4321 12.9769 22.8799 13.4247 22.8799 13.9769L22.8799 20.1372C22.8799 22.7308 20.7773 24.8333 18.1836 24.8333H5.86291C3.26929 24.8333 1.16669 22.7308 1.16669 20.1372V7.81671C1.16669 5.22309 3.26929 3.12061 5.86291 3.12061H12.0233C12.5756 3.12061 13.0233 3.56832 13.0233 4.12061C13.0233 4.67289 12.5756 5.12061 12.0233 5.12061H5.86291Z" fill="current"/>
<path id="Icon (Stroke)_2" d="M19.2504 2.17438C19.9265 1.49794 21.0229 1.49748 21.6996 2.17335L23.8253 4.29664C24.5023 4.9728 24.5027 6.06974 23.8264 6.74647L13.7914 16.7866C13.5502 17.0279 13.243 17.1927 12.9085 17.2601L8.42579 18.1633C8.26161 18.1964 8.09177 18.145 7.97338 18.0266C7.85498 17.9081 7.80377 17.7382 7.83694 17.5741L8.7418 13.0968C8.80927 12.763 8.97368 12.4564 9.21446 12.2155L19.2504 2.17438Z" fill="current"/>
</g>
</svg>
