<svg width="current" height="current" viewBox="0 0 26 26" fill="none" xmlns="http://www.w3.org/2000/svg">
<g id="ic-check-active">
<path id="Exclude" fill-rule="evenodd" clip-rule="evenodd" d="M3.5 18.9375C3.5 20.905 5.09499 22.5 7.0625 22.5H18.9375C20.905 22.5 22.5 20.905 22.5 18.9375L22.5 7.06248C22.5 5.09498 20.905 3.5 18.9375 3.5H7.0625C5.09499 3.5 3.5 5.09498 3.5 7.06248V18.9375ZM17.6664 11.2456C18.0782 10.8775 18.1136 10.2453 17.7455 9.83356C17.3775 9.4218 16.7453 9.38639 16.3335 9.75446L12.1909 13.4576L10.2071 11.4738C9.81659 11.0833 9.18342 11.0833 8.7929 11.4738C8.40237 11.8643 8.40237 12.4975 8.79289 12.888L11.4453 15.5404C11.8204 15.9156 12.4233 15.9325 12.8188 15.5789L17.6664 11.2456Z" fill="current"/>
</g>
</svg>
