<svg width="current" height="current" viewBox="0 0 26 26" fill="none" xmlns="http://www.w3.org/2000/svg">
<g id="ic-doksi">
<path id="Vector" d="M13.5239 4.8957H9.67476C9.14225 4.8957 8.63417 4.67627 8.27166 4.29049L7.4887 3.45684C6.60039 2.51039 5 3.13267 5 4.42461V21.1043C5 22.1512 5.85766 23 6.91549 23H13.5239C18.2049 23 22 19.2441 22 14.6114V13.2843C22 8.65163 18.2049 4.8957 13.5239 4.8957ZM15.8484 14.1739C15.8484 15.4303 14.8193 16.4488 13.5498 16.4488H13.4502C12.1807 16.4488 11.1516 15.4303 11.1516 14.1739V13.7218C11.1516 12.4654 12.1807 11.4469 13.4502 11.4469H13.5498C14.8193 11.4469 15.8484 12.4654 15.8484 13.7218V14.1739Z" fill="current"/>
</g>
</svg>
