<svg width="current" height="current" viewBox="0 0 26 26" fill="none" xmlns="http://www.w3.org/2000/svg">
<g id="ic-eye-open">
<path id="Icon (Stroke)" fill-rule="evenodd" clip-rule="evenodd" d="M3.67045 13.1131C3.74383 13.2824 3.85046 13.5124 3.99403 13.7849C4.32083 14.405 4.83342 15.2342 5.57219 16.0648C7.0387 17.7136 9.38963 19.3678 13.0163 19.4271C16.6215 19.4861 18.9582 17.8439 20.4219 16.1687C21.1598 15.3242 21.6727 14.4725 22.0003 13.8321C22.149 13.5415 22.2583 13.2969 22.3321 13.1197C22.2603 12.9386 22.1534 12.6875 22.0068 12.3884C21.6861 11.7343 21.1814 10.8632 20.4485 9.99554C18.9947 8.2743 16.6551 6.57153 13 6.57153C9.34482 6.57153 7.00526 8.2743 5.55143 9.99554C4.81858 10.8632 4.31388 11.7343 3.99317 12.3884C3.8483 12.6839 3.7422 12.9325 3.67045 13.1131ZM23.4 13.129C24.3543 12.8302 24.3541 12.8297 24.354 12.8292L24.3536 12.828L24.3527 12.8252L24.3502 12.8174L24.3425 12.7937C24.3361 12.7743 24.3272 12.7479 24.3157 12.715C24.2927 12.649 24.2593 12.5567 24.2145 12.4417C24.1251 12.2118 23.9901 11.8904 23.8025 11.5079C23.4285 10.745 22.8394 9.72672 21.9764 8.705C20.2386 6.6475 17.3782 4.57153 13 4.57153C8.6218 4.57153 5.76136 6.6475 4.02352 8.705C3.16054 9.72672 2.57149 10.745 2.19741 11.5079C2.00985 11.8904 1.87484 12.2118 1.78541 12.4417C1.74067 12.5567 1.70723 12.649 1.68424 12.715C1.67275 12.7479 1.66386 12.7743 1.65747 12.7937L1.64974 12.8174L1.64725 12.8252L1.64635 12.828L1.64598 12.8292C1.64583 12.8297 1.64567 12.8302 2.59998 13.129L1.64567 12.8302L1.54749 13.1437L1.65439 13.4544L2.59998 13.129C1.65439 13.4544 1.65456 13.4549 1.65474 13.4554L1.65514 13.4565L1.65611 13.4594L1.65877 13.4669L1.66696 13.4898C1.67371 13.5085 1.68305 13.5338 1.69507 13.5654C1.71911 13.6285 1.75395 13.7168 1.80034 13.8266C1.89306 14.0459 2.03239 14.3524 2.22467 14.7173C2.60829 15.4452 3.2082 16.4163 4.07777 17.3939C5.82792 19.3617 8.67699 21.3564 12.9836 21.4269C17.3118 21.4976 20.1751 19.4908 21.928 17.4846C22.7985 16.4884 23.3981 15.4912 23.7809 14.743C23.9728 14.3678 24.1118 14.0522 24.2041 13.8264C24.2503 13.7134 24.285 13.6226 24.3088 13.5577C24.3208 13.5252 24.33 13.4992 24.3367 13.4802L24.3448 13.4568L24.3474 13.4491L24.3483 13.4463L24.3487 13.4452C24.3489 13.4446 24.349 13.4442 23.4 13.129ZM23.4 13.129L24.349 13.4442L24.4507 13.138L24.3543 12.8302L23.4 13.129ZM3.54481 12.8015C3.54464 12.801 3.54462 12.8009 3.54475 12.8013L3.54481 12.8015ZM3.55357 13.4301C3.55347 13.4304 3.55352 13.4303 3.55371 13.4297L3.55357 13.4301ZM13 11.5017C12.0904 11.5017 11.4 12.2123 11.4 13.0317C11.4 13.8511 12.0904 14.5617 13 14.5617C13.9095 14.5617 14.6 13.8511 14.6 13.0317C14.6 12.2123 13.9095 11.5017 13 11.5017ZM9.39998 13.0317C9.39998 11.0566 11.0377 9.50173 13 9.50173C14.9623 9.50173 16.6 11.0566 16.6 13.0317C16.6 15.0068 14.9623 16.5617 13 16.5617C11.0377 16.5617 9.39998 15.0068 9.39998 13.0317Z" fill="current"/>
</g>
</svg>
