<svg width="current" height="current" viewBox="0 0 26 26" fill="none" xmlns="http://www.w3.org/2000/svg">
<g id="ic-eye-closed">
<path id="Icon (Stroke)" fill-rule="evenodd" clip-rule="evenodd" d="M5.14287 4.16789C5.53339 3.77737 6.16656 3.77737 6.55708 4.16789L22.8071 20.4179C23.1976 20.8084 23.1976 21.4416 22.8071 21.8321C22.4166 22.2226 21.7834 22.2226 21.3929 21.8321L19.272 19.7112C17.6401 20.724 15.5648 21.4225 12.9836 21.3803C8.67699 21.3099 5.82792 19.3151 4.07777 17.3474C3.2082 16.3697 2.60829 15.3987 2.22467 14.6707C2.03239 14.3059 1.89306 13.9994 1.80034 13.78C1.75395 13.6702 1.71911 13.582 1.69507 13.5189C1.68305 13.4873 1.67371 13.4619 1.66696 13.4433L1.65877 13.4204L1.65611 13.4128L1.65514 13.41L1.65474 13.4088C1.65456 13.4083 1.65439 13.4079 2.59998 13.0825C1.64567 12.7836 1.64578 12.7833 1.64588 12.783L1.64668 12.7804L1.64812 12.7759L1.65233 12.7628L1.66613 12.7212C1.67777 12.6867 1.69434 12.6389 1.71612 12.579C1.75966 12.4593 1.82416 12.2911 1.91193 12.0847C2.08721 11.6723 2.35677 11.1038 2.73976 10.462C3.44608 9.27839 4.55568 7.81652 6.1981 6.63734L5.14287 5.58211C4.75234 5.19158 4.75234 4.55842 5.14287 4.16789ZM7.63543 8.07467C6.13213 9.07512 5.10946 10.3939 4.4572 11.4869C4.12819 12.0382 3.8985 12.5237 3.75253 12.8671C3.72133 12.9405 3.69402 13.0072 3.67045 13.0666C3.74383 13.2358 3.85046 13.4659 3.99403 13.7383C4.32083 14.3585 4.83342 15.1876 5.57219 16.0182C7.0387 17.6671 9.38963 19.3213 13.0163 19.3806C14.9776 19.4127 16.5515 18.9427 17.8106 18.2498L15.2788 15.718C14.6564 16.2174 13.8611 16.5151 13 16.5151C11.0377 16.5151 9.39998 14.9603 9.39998 12.9852C9.39998 12.1101 9.72571 11.3106 10.2582 10.6974L7.63543 8.07467ZM11.6804 12.1197C11.5018 12.3678 11.4 12.6655 11.4 12.9852C11.4 13.8046 12.0904 14.5151 13 14.5151C13.3127 14.5151 13.6014 14.4301 13.8453 14.2845L11.6804 12.1197ZM2.59998 13.0825L1.64588 12.783L1.54749 13.0972L1.65439 13.4079L2.59998 13.0825ZM13 6.525C12.5843 6.525 12.187 6.54695 11.8075 6.58799C11.2584 6.64736 10.7651 6.25037 10.7058 5.70128C10.6464 5.1522 11.0434 4.65895 11.5925 4.59958C12.0447 4.55069 12.5137 4.525 13 4.525C17.3782 4.525 20.2386 6.60097 21.9764 8.65847C22.8394 9.68018 23.4285 10.6984 23.8025 11.4614C23.9901 11.8439 24.1251 12.1653 24.2145 12.3951C24.2593 12.5101 24.2927 12.6025 24.3157 12.6684C24.3272 12.7014 24.3361 12.7278 24.3425 12.7472L24.3502 12.7708L24.3527 12.7786L24.3536 12.7815L24.354 12.7826C24.3541 12.7831 24.3543 12.7836 23.4 13.0825C24.349 13.3976 24.349 13.3978 24.3489 13.398L24.3478 13.4012L24.3461 13.4064L24.3409 13.4214C24.3367 13.4336 24.331 13.4499 24.3238 13.47C24.3093 13.5104 24.2885 13.5666 24.2612 13.6368C24.2066 13.7771 24.1256 13.974 24.0152 14.2141C23.7949 14.6933 23.4555 15.3491 22.9736 16.0706C22.6668 16.5299 22.0458 16.6535 21.5865 16.3467C21.1273 16.0399 21.0037 15.4189 21.3105 14.9597C21.7236 14.3413 22.0132 13.7807 22.1981 13.3786C22.2516 13.2623 22.2961 13.1596 22.3321 13.0732C22.2603 12.8921 22.1534 12.6409 22.0068 12.3419C21.6861 11.6878 21.1814 10.8167 20.4485 9.949C18.9947 8.22777 16.6551 6.525 13 6.525ZM23.4 13.0825L24.3489 13.398L24.4507 13.0915L24.3543 12.7836L23.4 13.0825Z" fill="current"/>
</g>
</svg>
