<svg width="current" height="current" viewBox="0 0 26 26" fill="none" xmlns="http://www.w3.org/2000/svg">
<g id="ic-heart-active">
<path id="Icon" fill-rule="evenodd" clip-rule="evenodd" d="M4.12362 6.72348C5.09877 5.74864 6.42117 5.201 7.80002 5.201C9.17888 5.201 10.5013 5.74864 11.4764 6.72348L13 8.24578L14.5236 6.72348C15.0033 6.22683 15.5771 5.83068 16.2115 5.55816C16.8459 5.28563 17.5283 5.14218 18.2187 5.13618C18.9092 5.13018 19.5939 5.26175 20.233 5.52321C20.872 5.78467 21.4526 6.17079 21.9409 6.65903C22.4291 7.14727 22.8152 7.72786 23.0767 8.36692C23.3382 9.00598 23.4697 9.69072 23.4637 10.3812C23.4577 11.0716 23.3143 11.754 23.0417 12.3884C22.7692 13.0228 22.3731 13.5966 21.8764 14.0763L13 22.954L4.12362 14.0763C3.14878 13.1011 2.60114 11.7787 2.60114 10.3999C2.60114 9.02103 3.14878 7.69863 4.12362 6.72348V6.72348Z" fill="current"/>
</g>
</svg>
