<svg width="current" height="current" viewBox="0 0 26 26" fill="none" xmlns="http://www.w3.org/2000/svg">
<g id="ic-heart-default">
<path id="Vector" d="M12.9 22.82C12.63 22.82 12.38 22.71 12.19 22.53L3.32 13.65C2.15 12.48 1.5 10.92 1.5 9.27C1.5 7.62 2.14 6.05 3.31 4.88C4.49 3.71 6.04 3.06 7.7 3.06C9.36 3.06 10.91 3.7 12.08 4.88L12.9 5.7L13.72 4.88C14.28 4.3 14.96 3.83 15.72 3.5C16.48 3.17 17.29 3 18.11 3C18.99 3 19.75 3.15 20.51 3.46C21.27 3.77 21.96 4.23 22.55 4.81C23.14 5.4 23.59 6.08 23.91 6.85C24.22 7.62 24.38 8.43 24.37 9.25C24.37 10.08 24.19 10.88 23.87 11.64C23.55 12.4 23.08 13.08 22.48 13.65L13.62 22.52C13.43 22.71 13.18 22.81 12.91 22.81L12.9 22.82ZM4.73 6.29C3.94 7.08 3.5 8.14 3.5 9.26C3.5 10.38 3.94 11.44 4.73 12.23L12.9 20.4L21.07 12.23C21.49 11.83 21.8 11.37 22.02 10.85C22.24 10.33 22.36 9.79 22.36 9.23C22.36 8.67 22.26 8.12 22.05 7.6C21.84 7.08 21.53 6.62 21.13 6.22C20.73 5.82 20.27 5.51 19.75 5.3C19.23 5.09 18.67 4.99 18.12 4.99C17.56 4.99 17.01 5.11 16.5 5.33C15.98 5.55 15.53 5.87 15.14 6.27L13.6 7.8C13.21 8.19 12.58 8.19 12.19 7.8L10.67 6.28C9.88 5.49 8.82 5.05 7.7 5.05C6.58 5.05 5.52 5.49 4.73 6.28V6.29Z" fill="current"/>
</g>
</svg>
