<svg width="current" height="current" viewBox="0 0 26 26" fill="none" xmlns="http://www.w3.org/2000/svg">
<g id="ic-library">
<path id="Union" fill-rule="evenodd" clip-rule="evenodd" d="M9.5 5.6C9.5 4.71634 10.2163 4 11.1 4H12.9C13.7837 4 14.5 4.71634 14.5 5.6V20.4C14.5 21.2837 13.7837 22 12.9 22H11.1C10.2163 22 9.5 21.2837 9.5 20.4V5.6ZM4 7.6C4 6.71634 4.71634 6 5.6 6H7.4C8.28366 6 9 6.71634 9 7.6V20.4C9 21.2837 8.28366 22 7.4 22H5.6C4.71634 22 4 21.2837 4 20.4V7.6ZM16.0455 10.2858C15.1919 10.5145 14.6854 11.3919 14.9141 12.2454L17.1917 20.7456C17.4204 21.5991 18.2978 22.1057 19.1513 21.8769L20.89 21.4111C21.7435 21.1824 22.2501 20.305 22.0213 19.4515L19.7437 10.9513C19.515 10.0978 18.6377 9.59126 17.7841 9.81997L16.0455 10.2858Z" fill="current"/>
</g>
</svg>
