<svg width="current" height="current" viewBox="0 0 26 26" fill="none" xmlns="http://www.w3.org/2000/svg">
<g id="ic-plus">
<path id="Icon (Stroke)" fill-rule="evenodd" clip-rule="evenodd" d="M13 5.41675C13.5983 5.41675 14.0833 5.90177 14.0833 6.50008L14.0833 11.9167H19.5C20.0983 11.9167 20.5833 12.4018 20.5833 13.0001C20.5833 13.5984 20.0983 14.0834 19.5 14.0834H14.0833V19.5001C14.0833 20.0984 13.5983 20.5834 13 20.5834C12.4017 20.5834 11.9166 20.0984 11.9166 19.5001L11.9166 14.0834H6.49996C5.90165 14.0834 5.41663 13.5984 5.41663 13.0001C5.41663 12.4018 5.90165 11.9167 6.49996 11.9167H11.9166L11.9166 6.50008C11.9166 5.90177 12.4017 5.41675 13 5.41675Z" fill="current"/>
</g>
</svg>
