<svg width="current" height="current" viewBox="0 0 26 26" fill="none" xmlns="http://www.w3.org/2000/svg">
<g id="ic-setting">
<path id="Icon (Stroke)" fill-rule="evenodd" clip-rule="evenodd" d="M13 11.8333C12.3556 11.8333 11.8333 12.3556 11.8333 12.9999C11.8333 13.6443 12.3556 14.1666 13 14.1666C13.6443 14.1666 14.1666 13.6443 14.1666 12.9999C14.1666 12.3556 13.6443 11.8333 13 11.8333ZM9.83331 12.9999C9.83331 11.251 11.2511 9.83325 13 9.83325C14.7489 9.83325 16.1666 11.251 16.1666 12.9999C16.1666 14.7488 14.7489 16.1666 13 16.1666C11.2511 16.1666 9.83331 14.7488 9.83331 12.9999Z" fill="current"/>
<path id="Vector" d="M12.92 24.0001H12.89C11.58 23.9901 10.46 23.1801 10.04 21.9401C9.93997 21.6601 9.73997 21.4301 9.45997 21.3201C9.17997 21.2001 8.87997 21.2101 8.60997 21.3301C7.41997 21.8801 6.06997 21.6301 5.14997 20.7001C4.22997 19.7701 4.00997 18.4001 4.58997 17.2301C4.71997 16.9601 4.72997 16.6601 4.61997 16.3801C4.50997 16.1001 4.28997 15.8901 4.00997 15.7901C2.76997 15.3401 1.98997 14.2001 1.99997 12.8901C2.00997 11.5801 2.81997 10.4601 4.05997 10.0401C4.33997 9.94008 4.56997 9.74008 4.67997 9.46008C4.79997 9.18008 4.78997 8.88008 4.66997 8.61008C4.11997 7.42008 4.36997 6.07008 5.29997 5.15008C6.22997 4.23008 7.59997 4.01008 8.76997 4.59008C9.03997 4.72008 9.33997 4.73008 9.61997 4.62008C9.89997 4.51008 10.11 4.29008 10.21 4.01008C10.66 2.77008 11.81 1.97008 13.11 2.00008C14.42 2.01008 15.54 2.82008 15.96 4.06008C16.06 4.34008 16.26 4.57008 16.54 4.68008C16.82 4.80008 17.12 4.79008 17.39 4.67008C18.58 4.12008 19.93 4.37008 20.85 5.30008C21.77 6.23008 21.99 7.60008 21.41 8.77008C21.28 9.04008 21.27 9.34008 21.38 9.62008C21.49 9.90008 21.71 10.1101 21.99 10.2101C23.22 10.6601 24 11.8001 23.99 13.1001C23.98 14.4001 23.17 15.5301 21.93 15.9501C21.65 16.0501 21.42 16.2501 21.31 16.5301C21.19 16.8101 21.2 17.1101 21.32 17.3801C21.87 18.5701 21.62 19.9201 20.69 20.8401C19.76 21.7601 18.39 21.9801 17.22 21.4001C16.95 21.2701 16.65 21.2601 16.37 21.3701C16.09 21.4801 15.88 21.7001 15.78 21.9801C15.33 23.2001 14.21 23.9801 12.92 23.9801V24.0001ZM9.03997 19.2401C9.44997 19.2401 9.84997 19.3201 10.23 19.4801C11.02 19.8201 11.64 20.4801 11.92 21.2901C12.14 21.9401 12.73 22.0001 12.9 22.0001C13.07 22.0001 13.66 21.9601 13.9 21.3101C14.2 20.5001 14.82 19.8501 15.62 19.5301C16.42 19.2101 17.32 19.2401 18.1 19.6201C18.72 19.9201 19.17 19.5501 19.29 19.4301C19.41 19.3101 19.8 18.8601 19.51 18.2401C19.15 17.4601 19.13 16.5601 19.47 15.7601C19.81 14.9601 20.47 14.3501 21.28 14.0701C21.93 13.8501 21.99 13.2601 21.99 13.0901C21.99 12.9201 21.95 12.3301 21.3 12.0901C20.49 11.7901 19.84 11.1701 19.52 10.3701C19.2 9.57008 19.23 8.67008 19.61 7.89008C19.91 7.27008 19.54 6.82008 19.42 6.69008C19.3 6.57008 18.85 6.18008 18.23 6.47008C17.45 6.83008 16.55 6.85008 15.75 6.51008C14.96 6.17008 14.34 5.51008 14.06 4.70008C13.84 4.05008 13.25 3.99008 13.08 3.99008C12.89 3.98008 12.32 4.03008 12.08 4.68008C11.78 5.49008 11.16 6.14008 10.36 6.46008C9.55997 6.78008 8.65997 6.75008 7.87997 6.37008C7.25997 6.07008 6.80997 6.44008 6.67997 6.56008C6.55997 6.68008 6.16997 7.13008 6.45997 7.75008C6.81997 8.53008 6.83997 9.43008 6.49997 10.2301C6.15997 11.0301 5.49997 11.6401 4.68997 11.9201C4.03997 12.1401 3.97997 12.7301 3.97997 12.9001C3.97997 13.0701 4.01997 13.6601 4.66997 13.9001C5.47997 14.2001 6.12997 14.8201 6.44997 15.6201C6.76997 16.4201 6.73997 17.3201 6.35997 18.1001C6.05997 18.7201 6.42997 19.1701 6.54997 19.3001C6.66997 19.4301 7.11997 19.8101 7.73997 19.5201C8.14997 19.3301 8.57997 19.2401 9.01997 19.2401H9.03997Z" fill="current"/>
</g>
</svg>
