<svg width="current" height="current" viewBox="0 0 26 26" fill="none" xmlns="http://www.w3.org/2000/svg">
<g id="ic-subscription">
<path id="Icon (Stroke)" fill-rule="evenodd" clip-rule="evenodd" d="M13 2.25C13.5523 2.25 14 2.69772 14 3.25V7.70714C14 8.25943 13.5523 8.70714 13 8.70714C12.4477 8.70714 12 8.25943 12 7.70714V3.25C12 2.69772 12.4477 2.25 13 2.25ZM5.39791 5.39846C5.78844 5.00793 6.4216 5.00793 6.81213 5.39846L9.9638 8.55013C10.3543 8.94066 10.3543 9.57382 9.9638 9.96435C9.57328 10.3549 8.94011 10.3549 8.54959 9.96435L5.39791 6.81267C5.00739 6.42215 5.00739 5.78898 5.39791 5.39846ZM20.6017 5.39879C20.9923 5.78932 20.9923 6.42248 20.6017 6.81301L17.4501 9.96468C17.0595 10.3552 16.4264 10.3552 16.0359 9.96468C15.6453 9.57416 15.6453 8.94099 16.0359 8.55047L19.1875 5.39879C19.5781 5.00827 20.2112 5.00827 20.6017 5.39879ZM2.25 13C2.25 12.4477 2.69772 12 3.25 12H7.70714C8.25943 12 8.70714 12.4477 8.70714 13C8.70714 13.5523 8.25943 14 7.70714 14H3.25C2.69772 14 2.25 13.5523 2.25 13ZM17.2929 13C17.2929 12.4477 17.7406 12 18.2929 12H22.75C23.3023 12 23.75 12.4477 23.75 13C23.75 13.5523 23.3023 14 22.75 14H18.2929C17.7406 14 17.2929 13.5523 17.2929 13ZM16.0359 16.0353C16.4264 15.6448 17.0596 15.6448 17.4501 16.0353L20.6017 19.187C20.9923 19.5775 20.9923 20.2107 20.6017 20.6012C20.2112 20.9917 19.5781 20.9917 19.1875 20.6012L16.0359 17.4495C15.6453 17.059 15.6453 16.4258 16.0359 16.0353ZM9.9638 16.0357C10.3543 16.4262 10.3543 17.0593 9.9638 17.4499L6.81213 20.6015C6.4216 20.9921 5.78844 20.9921 5.39791 20.6015C5.00739 20.211 5.00739 19.5779 5.39791 19.1873L8.54959 16.0357C8.94011 15.6451 9.57328 15.6451 9.9638 16.0357ZM13 17.2929C13.5523 17.2929 14 17.7406 14 18.2929V22.75C14 23.3023 13.5523 23.75 13 23.75C12.4477 23.75 12 23.3023 12 22.75V18.2929C12 17.7406 12.4477 17.2929 13 17.2929Z" fill="current"/>
</g>
</svg>
